<svg width="16" height="13" viewBox="0 0 16 13" fill="none" xmlns="http://www.w3.org/2000/svg">
<path fill-rule="evenodd" clip-rule="evenodd" d="M3.17442 3.46134e-07H12.8256C13.1765 -7.65387e-06 13.4793 -1.57282e-05 13.7299 0.0170803C13.9938 0.0350883 14.2577 0.0746885 14.5185 0.182688C15.1065 0.426272 15.5738 0.893497 15.8173 1.48156C15.9253 1.7423 15.9649 2.00623 15.983 2.2701C16 2.5207 16 2.82349 16 3.17441V9.6256C16 9.97648 16 10.2793 15.983 10.5299C15.9649 10.7938 15.9253 11.0577 15.8173 11.3185C15.5738 11.9065 15.1065 12.3738 14.5185 12.6173C14.2577 12.7253 13.9938 12.7649 13.7299 12.783C13.4793 12.8 13.1765 12.8 12.8256 12.8H3.17441C2.82349 12.8 2.5207 12.8 2.2701 12.783C2.00623 12.7649 1.7423 12.7253 1.48156 12.6173C0.893496 12.3738 0.426272 11.9065 0.182688 11.3185C0.0746883 11.0577 0.0350883 10.7938 0.0170803 10.5299C-1.57282e-05 10.2793 -7.65387e-06 9.97648 3.46134e-07 9.6256V3.17442C-7.65387e-06 2.8235 -1.57282e-05 2.5207 0.0170803 2.2701C0.0350883 2.00623 0.0746883 1.7423 0.182688 1.48156C0.426272 0.893497 0.893496 0.426272 1.48156 0.182688C1.7423 0.0746885 2.00623 0.0350883 2.2701 0.0170803C2.5207 -1.57282e-05 2.8235 -7.65387e-06 3.17442 3.46134e-07ZM1.85396 1.82222C2.14491 1.48971 2.65032 1.45602 2.98283 1.74696L7.4732 5.676C7.7748 5.93992 8.2252 5.93992 8.5268 5.676L13.0172 1.74696C13.3497 1.45602 13.8551 1.48971 14.146 1.82222C14.437 2.15473 14.4033 2.66014 14.0708 2.95108L9.5804 6.88016C8.67552 7.67192 7.32448 7.67192 6.4196 6.88016L1.92922 2.95108C1.59671 2.66014 1.56302 2.15473 1.85396 1.82222Z" fill="#0A6EFF"/>
</svg>
