<svg width="16" height="20" viewBox="0 0 16 20" fill="none" xmlns="http://www.w3.org/2000/svg">
<path d="M8.00199 0C5.87916 0.00212035 3.844 0.845911 2.34368 2.34597C0.843366 3.84603 0.00062224 5.87965 0.000623301 8C-0.0247443 10.5711 0.724744 13.0904 2.15168 15.2304C3.57862 17.3704 5.61703 19.0323 8.00199 20C10.3862 19.0317 12.4238 17.3696 13.85 15.2296C15.2761 13.0896 16.025 10.5706 15.9994 8C15.9994 5.88035 15.1572 3.84733 13.6577 2.34738C12.1583 0.847437 10.1241 0.00317948 8.00199 0ZM8.00199 11C7.40795 11 6.82726 10.8241 6.33333 10.4944C5.8394 10.1648 5.45443 9.69623 5.22711 9.14805C4.99978 8.59987 4.9403 7.99667 5.05619 7.41473C5.17208 6.83279 5.45814 6.29824 5.87819 5.87868C6.29824 5.45912 6.83341 5.1734 7.41604 5.05764C7.99866 4.94189 8.60257 5.0013 9.15139 5.22836C9.70021 5.45542 10.1693 5.83994 10.4993 6.33329C10.8294 6.82664 11.0055 7.40666 11.0055 8C11.0055 8.79565 10.6891 9.55871 10.1258 10.1213C9.56253 10.6839 8.79858 11 8.00199 11Z" fill="#0A6EFF"/>
</svg>
