<svg width="200" height="20" viewBox="0 0 200 20" fill="none" xmlns="http://www.w3.org/2000/svg">
<path d="M199.222 5.54456L194.364 19.6964H190.007L185.109 5.54456H189.241L192.185 16.2904H192.264L195.195 5.54456H199.222Z" fill="#11295A"/>
<path d="M182.403 18.0462C181.144 19.3487 179.437 20 177.28 20C175.124 20 173.417 19.3443 172.158 18.033C170.9 16.7217 170.271 14.9131 170.271 12.6073C170.271 10.3278 170.904 8.53245 172.171 7.22112C173.448 5.90099 175.151 5.24092 177.28 5.24092C179.419 5.24092 181.122 5.90099 182.389 7.22112C183.657 8.53245 184.29 10.3278 184.29 12.6073C184.29 14.9219 183.661 16.7349 182.403 18.0462ZM177.28 17.0561C178.231 17.0561 178.983 16.6689 179.538 15.8944C180.092 15.1199 180.37 14.0286 180.37 12.6205C180.37 11.2299 180.092 10.143 179.538 9.35973C178.983 8.57645 178.231 8.18482 177.28 8.18482C176.33 8.18482 175.573 8.57645 175.01 9.35973C174.455 10.143 174.178 11.2299 174.178 12.6205C174.178 14.0286 174.455 15.1199 175.01 15.8944C175.564 16.6689 176.321 17.0561 177.28 17.0561Z" fill="#11295A"/>
<path d="M160.238 11.2211L165.043 5.54456H169.413L164.013 11.6172L169.677 19.6964H165.241L161.188 13.9406L160.185 15.0231V19.6964H156.33V0.646866H160.185V11.2211H160.238Z" fill="#11295A"/>
<path d="M149.809 19.6964V5.54455H153.664V19.6964H149.809ZM153.202 3.40594C152.805 3.79318 152.317 3.9868 151.736 3.9868C151.155 3.9868 150.667 3.79318 150.271 3.40594C149.875 3.0187 149.677 2.54785 149.677 1.9934C149.677 1.43014 149.875 0.959296 150.271 0.580858C150.667 0.193619 151.155 0 151.736 0C152.317 0 152.805 0.193619 153.202 0.580858C153.598 0.959296 153.796 1.43014 153.796 1.9934C153.796 2.54785 153.598 3.0187 153.202 3.40594Z" fill="#11295A"/>
<path d="M143.287 19.6964V0.646866H147.142V19.6964H143.287Z" fill="#11295A"/>
<path d="M134.205 17.1485C135.05 17.1485 135.754 16.8669 136.317 16.3036C136.889 15.7316 137.201 14.9923 137.254 14.0858H131.261C131.278 15.0099 131.556 15.7536 132.093 16.3168C132.638 16.8713 133.342 17.1485 134.205 17.1485ZM131.195 9.70297H127.657C127.974 8.31243 128.704 7.22112 129.848 6.42904C130.992 5.63696 132.44 5.24092 134.192 5.24092C136.33 5.24092 138.011 5.89659 139.234 7.20792C140.467 8.51045 141.083 10.297 141.083 12.5677C141.083 14.8383 140.462 16.6469 139.221 17.9934C137.98 19.3311 136.304 20 134.192 20C132.159 20 130.539 19.3575 129.333 18.0726C128.137 16.7877 127.538 15.0583 127.538 12.8845L127.564 11.7228H137.294V11.4983C137.294 10.4862 137.008 9.66336 136.436 9.0297C135.864 8.39604 135.102 8.07921 134.152 8.07921C132.691 8.07921 131.705 8.62046 131.195 9.70297Z" fill="#11295A"/>
<path d="M125.095 19.6964H121.544V6.83827H121.439L116.264 19.5115H113.756L108.581 6.83827H108.475V19.6964H104.924V0.646851H109.544L114.957 14.1518H115.062L120.475 0.646851H125.095V19.6964Z" fill="#11295A"/>
<path d="M88.3832 19.9208C86.6143 19.9208 85.2105 19.2651 84.172 17.9538C83.1335 16.6425 82.6143 14.8559 82.6143 12.594C82.6143 10.3498 83.1335 8.57644 84.172 7.27391C85.2193 5.97138 86.6319 5.32012 88.4096 5.32012C89.4129 5.32012 90.293 5.56214 91.0499 6.04619C91.8156 6.53024 92.3744 7.1727 92.7265 7.97358H92.8057V0.646851H96.6605V19.6964H92.8585V17.2673H92.7925C92.4404 18.0682 91.8728 18.7107 91.0895 19.1947C90.3062 19.6788 89.4041 19.9208 88.3832 19.9208ZM89.6902 8.40923C88.7221 8.40923 87.9564 8.78767 87.3931 9.54454C86.8387 10.3014 86.5615 11.3267 86.5615 12.6204C86.5615 13.923 86.8387 14.9483 87.3931 15.6964C87.9564 16.4444 88.7221 16.8185 89.6902 16.8185C90.6495 16.8185 91.4107 16.4444 91.974 15.6964C92.5461 14.9395 92.8321 13.9142 92.8321 12.6204C92.8321 11.3355 92.5461 10.3146 91.974 9.55774C91.4107 8.79207 90.6495 8.40923 89.6902 8.40923Z" fill="#11295A"/>
<path d="M73.782 17.1353C74.6357 17.1353 75.3573 16.8889 75.947 16.396C76.5455 15.8944 76.8447 15.2651 76.8447 14.5082V13.4785L73.8612 13.6634C73.1395 13.7162 72.5807 13.8966 72.1846 14.2046C71.7974 14.5126 71.6038 14.9175 71.6038 15.4191C71.6038 15.9472 71.8018 16.3652 72.1978 16.6733C72.5939 16.9813 73.1219 17.1353 73.782 17.1353ZM72.5147 19.9208C71.1505 19.9208 70.0196 19.5203 69.1219 18.7195C68.2242 17.9186 67.7754 16.8889 67.7754 15.6304C67.7754 14.3454 68.2506 13.3377 69.2011 12.6073C70.1516 11.8768 71.5114 11.4587 73.2803 11.3531L76.8447 11.1419V10.2046C76.8447 9.55335 76.6291 9.0429 76.1978 8.67326C75.7754 8.30363 75.1989 8.11881 74.4685 8.11881C73.7644 8.11881 73.1879 8.27722 72.7391 8.59406C72.299 8.91089 72.0306 9.33773 71.9338 9.87458H68.4091C68.4795 8.48405 69.0735 7.36633 70.1912 6.52145C71.3089 5.66776 72.7919 5.24092 74.6401 5.24092C76.4531 5.24092 77.9052 5.67216 78.9965 6.53465C80.0878 7.39714 80.6335 8.54125 80.6335 9.96699V19.6964H76.9107V17.5313H76.8315C76.4443 18.2706 75.8546 18.8559 75.0625 19.2871C74.2704 19.7096 73.4212 19.9208 72.5147 19.9208Z" fill="#11295A"/>
<path d="M54.376 19.6964V17.505L61.4255 8.56766V8.48845H54.4816V5.54456H65.9007V7.9868L59.2737 16.6733V16.7393H66.0591V19.6964H54.376Z" fill="#11295A"/>
<path d="M48.7786 19.6964L47.3265 15.0759H40.6334L39.1813 19.6964H35.0889L41.7027 0.646866H46.3892L53.0163 19.6964H48.7786ZM43.9338 4.29043L41.4915 12.0924H46.4684L44.0262 4.29043H43.9338Z" fill="#11295A"/>
<path d="M32.4624 19.2343C32.0488 19.6479 31.5471 19.8548 30.9574 19.8548C30.3678 19.8548 29.8661 19.6479 29.4525 19.2343C29.0389 18.8207 28.832 18.319 28.832 17.7294C28.832 17.1397 29.0389 16.638 29.4525 16.2244C29.8661 15.8108 30.3678 15.6039 30.9574 15.6039C31.5471 15.6039 32.0488 15.8108 32.4624 16.2244C32.876 16.638 33.0829 17.1397 33.0829 17.7294C33.0829 18.319 32.876 18.8207 32.4624 19.2343Z" fill="#11295A"/>
<path d="M18.6006 19.6964V5.54455H22.3234V8.09241H22.4026C22.649 7.19472 23.0626 6.50825 23.6435 6.033C24.2243 5.55775 24.9328 5.32013 25.7689 5.32013C26.1737 5.32013 26.539 5.36853 26.8646 5.46534V8.85808C26.5038 8.70847 26.0373 8.63366 25.4653 8.63366C24.5148 8.63366 23.7755 8.91089 23.2475 9.46534C22.7194 10.0198 22.4554 10.7943 22.4554 11.7888V19.6964H18.6006Z" fill="#11295A"/>
<path d="M0 0.646866H7.27393C10.143 0.646866 12.374 1.46975 13.967 3.11551C15.56 4.76128 16.3564 7.08911 16.3564 10.099C16.3564 13.1177 15.5556 15.4719 13.9538 17.1617C12.3608 18.8515 10.1342 19.6964 7.27393 19.6964H0V0.646866ZM3.9868 3.93399V16.396H6.79868C8.58526 16.396 9.94499 15.8636 10.8779 14.7987C11.8196 13.725 12.2904 12.1628 12.2904 10.1122C12.2904 8.12321 11.8152 6.59626 10.8647 5.53135C9.91419 4.46645 8.55886 3.93399 6.79868 3.93399H3.9868Z" fill="#11295A"/>
</svg>
