<svg width="280" height="52" viewBox="0 0 280 52" fill="none" xmlns="http://www.w3.org/2000/svg">
<rect width="52" height="52" rx="26" fill="#337FFF"/>
<path d="M32.362 27.6927L33.1029 22.9853H28.539V19.9255C28.539 18.6384 29.1762 17.3806 31.2136 17.3806H33.3178V13.3719C32.0924 13.1765 30.8542 13.0708 29.6133 13.0557C25.8569 13.0557 23.4046 15.3137 23.4046 19.3959V22.9853H19.2407V27.6927H23.4046V39.0788H28.539V27.6927H32.362Z" fill="white"/>
<rect x="76" width="52" height="52" rx="26" fill="url(#paint0_linear_398_263)"/>
<path d="M97.6726 26.0662C97.6726 23.671 99.6132 21.7287 102.008 21.7287C104.402 21.7287 106.344 23.671 106.344 26.0662C106.344 28.4615 104.402 30.4038 102.008 30.4038C99.6132 30.4038 97.6726 28.4615 97.6726 26.0662ZM95.3285 26.0662C95.3285 29.7563 98.3188 32.7475 102.008 32.7475C105.697 32.7475 108.687 29.7563 108.687 26.0662C108.687 22.3762 105.697 19.385 102.008 19.385C98.3188 19.385 95.3285 22.3762 95.3285 26.0662ZM107.391 19.1201C107.391 19.4289 107.482 19.7308 107.653 19.9876C107.825 20.2445 108.068 20.4447 108.354 20.563C108.639 20.6813 108.953 20.7123 109.255 20.6522C109.558 20.5921 109.836 20.4435 110.055 20.2252C110.273 20.0069 110.422 19.7288 110.482 19.4259C110.543 19.123 110.512 18.8091 110.394 18.5237C110.276 18.2384 110.076 17.9944 109.819 17.8228C109.563 17.6511 109.261 17.5594 108.952 17.5593H108.952C108.538 17.5595 108.141 17.724 107.848 18.0166C107.556 18.3092 107.391 18.7061 107.391 19.1201ZM96.7526 36.6573C95.4844 36.5996 94.7951 36.3883 94.337 36.2097C93.7297 35.9732 93.2964 35.6916 92.8408 35.2365C92.3853 34.7814 92.1032 34.3484 91.8679 33.7409C91.6893 33.2829 91.478 32.5932 91.4204 31.3246C91.3573 29.9531 91.3447 29.5411 91.3447 26.0663C91.3447 22.5916 91.3584 22.1808 91.4204 20.8081C91.4781 19.5395 91.6909 18.8512 91.8679 18.3918C92.1043 17.7843 92.3859 17.3509 92.8408 16.8952C93.2958 16.4395 93.7287 16.1574 94.337 15.9219C94.7949 15.7433 95.4844 15.532 96.7526 15.4743C98.1238 15.4112 98.5357 15.3986 102.008 15.3986C105.48 15.3986 105.892 15.4123 107.265 15.4743C108.533 15.5321 109.221 15.745 109.68 15.9219C110.287 16.1574 110.721 16.4401 111.176 16.8952C111.632 17.3503 111.913 17.7843 112.149 18.3918C112.328 18.8498 112.539 19.5395 112.597 20.8081C112.66 22.1808 112.672 22.5916 112.672 26.0663C112.672 29.5411 112.66 29.9519 112.597 31.3246C112.539 32.5932 112.327 33.2827 112.149 33.7409C111.913 34.3484 111.631 34.7818 111.176 35.2365C110.721 35.6912 110.287 35.9732 109.68 36.2097C109.222 36.3884 108.533 36.5997 107.265 36.6573C105.893 36.7204 105.482 36.733 102.008 36.733C98.5341 36.733 98.1234 36.7204 96.7526 36.6573ZM96.6449 13.1335C95.2602 13.1966 94.3139 13.4162 93.4876 13.7378C92.6318 14.07 91.9073 14.5156 91.1833 15.2387C90.4594 15.9617 90.015 16.6875 89.683 17.5436C89.3614 18.3707 89.1418 19.3167 89.0788 20.7018C89.0147 22.0892 89 22.5327 89 26.0662C89 29.5998 89.0147 30.0433 89.0788 31.4306C89.1418 32.8159 89.3614 33.7618 89.683 34.5889C90.015 35.4445 90.4595 36.1711 91.1833 36.8938C91.9072 37.6166 92.6318 38.0615 93.4876 38.3946C94.3155 38.7163 95.2602 38.9359 96.6449 38.999C98.0326 39.0621 98.4753 39.0778 102.008 39.0778C105.54 39.0778 105.984 39.0631 107.371 38.999C108.756 38.9359 109.701 38.7163 110.528 38.3946C111.383 38.0615 112.108 37.6169 112.832 36.8938C113.556 36.1708 114 35.4445 114.333 34.5889C114.654 33.7618 114.875 32.8158 114.937 31.4306C115 30.0423 115.015 29.5998 115.015 26.0662C115.015 22.5327 115 22.0892 114.937 20.7018C114.874 19.3166 114.654 18.3702 114.333 17.5436C114 16.688 113.555 15.9628 112.832 15.2387C112.109 14.5145 111.383 14.07 110.529 13.7378C109.701 13.4162 108.755 13.1955 107.372 13.1335C105.985 13.0704 105.541 13.0547 102.009 13.0547C98.4763 13.0547 98.0326 13.0694 96.6449 13.1335Z" fill="white"/>
<rect x="152" width="52" height="52" rx="26" fill="#00D95F"/>
<path d="M165 38.0378L166.865 31.1016C165.361 28.3996 164.883 25.2466 165.519 22.2212C166.155 19.1958 167.863 16.5009 170.329 14.631C172.795 12.7612 175.853 11.8418 178.943 12.0415C182.033 12.2413 184.948 13.5468 187.151 15.7185C189.355 17.8903 190.7 20.7825 190.94 23.8646C191.18 26.9467 190.299 30.0118 188.458 32.4975C186.617 34.9832 183.94 36.7228 180.918 37.397C177.896 38.0713 174.732 37.6349 172.006 36.1681L165 38.0378ZM172.344 33.5725L172.778 33.8291C174.752 34.9974 177.058 35.4809 179.336 35.2042C181.614 34.9274 183.737 33.9061 185.373 32.2993C187.009 30.6926 188.067 28.5906 188.381 26.321C188.696 24.0514 188.25 21.7416 187.112 19.7517C185.975 17.7617 184.21 16.2034 182.092 15.3194C179.975 14.4355 177.624 14.2756 175.406 14.8648C173.188 15.4539 171.228 16.7589 169.83 18.5765C168.433 20.3941 167.677 22.6221 167.681 24.9133C167.679 26.8131 168.205 28.6762 169.201 30.2951L169.473 30.7423L168.43 34.6137L172.344 33.5725Z" fill="white"/>
<path fill-rule="evenodd" clip-rule="evenodd" d="M182.861 26.6947C182.607 26.4902 182.31 26.3462 181.991 26.2738C181.673 26.2014 181.343 26.2024 181.025 26.2768C180.548 26.4747 180.239 27.2226 179.931 27.5966C179.866 27.6862 179.77 27.7491 179.662 27.7734C179.554 27.7977 179.44 27.7817 179.343 27.7285C177.595 27.0452 176.13 25.792 175.186 24.1725C175.106 24.0714 175.068 23.9431 175.08 23.8145C175.092 23.686 175.154 23.5672 175.252 23.4833C175.596 23.1432 175.849 22.7221 175.987 22.2588C176.017 21.7478 175.9 21.2387 175.649 20.7924C175.455 20.1666 175.085 19.6094 174.584 19.1867C174.326 19.0706 174.039 19.0317 173.759 19.0746C173.479 19.1175 173.217 19.2405 173.005 19.4286C172.637 19.7452 172.346 20.1402 172.151 20.5843C171.957 21.0284 171.864 21.5104 171.881 21.9948C171.882 22.2669 171.917 22.5377 171.984 22.8014C172.155 23.4348 172.417 24.04 172.763 24.5977C173.012 25.025 173.284 25.4386 173.578 25.8369C174.532 27.1449 175.732 28.2555 177.11 29.107C177.802 29.5397 178.541 29.8915 179.314 30.1555C180.116 30.5185 181.002 30.6579 181.877 30.5587C182.376 30.4834 182.848 30.2868 183.253 29.9864C183.657 29.6859 183.982 29.2908 184.198 28.8357C184.324 28.5608 184.363 28.2534 184.308 27.9558C184.176 27.3473 183.36 26.988 182.861 26.6947Z" fill="white"/>
<rect x="228.283" y="0.282609" width="51.0504" height="51.4348" rx="25.5252" fill="white"/>
<rect x="228.283" y="0.282609" width="51.0504" height="51.4348" rx="25.5252" stroke="#C4CFE3" stroke-width="0.565217"/>
<path d="M240.794 37.3045H245.589V25.6605L238.739 20.5234V35.2496C238.739 36.3866 239.661 37.3045 240.794 37.3045Z" fill="#4285F4"/>
<path d="M262.027 37.3045H266.822C267.959 37.3045 268.877 36.3832 268.877 35.2496V20.5234L262.027 25.6605" fill="#34A853"/>
<path d="M262.027 16.756V25.6602L268.877 20.5231V17.7834C268.877 15.2422 265.976 13.7936 263.945 15.3176" fill="#FBBC04"/>
<path d="M245.589 25.6601V16.7559L253.808 22.9203L262.027 16.7559V25.6601L253.808 31.8245" fill="#EA4335"/>
<path d="M238.739 17.7834V20.5231L245.589 25.6602V16.756L243.671 15.3176C241.637 13.7936 238.739 15.2422 238.739 17.7834Z" fill="#C5221F"/>
<defs>
<linearGradient id="paint0_linear_398_263" x1="127.001" y1="52" x2="75.0006" y2="-1.39969e-06" gradientUnits="userSpaceOnUse">
<stop stop-color="#FBE18A"/>
<stop offset="0.21" stop-color="#FCBB45"/>
<stop offset="0.38" stop-color="#F75274"/>
<stop offset="0.52" stop-color="#D53692"/>
<stop offset="0.74" stop-color="#8F39CE"/>
<stop offset="1" stop-color="#5B4FE9"/>
</linearGradient>
</defs>
</svg>
