<svg width="28" height="28" viewBox="0 0 28 28" fill="none" xmlns="http://www.w3.org/2000/svg">
<path d="M14.0012 2.33331C20.4447 2.33331 25.6678 7.55648 25.6678 14C25.6678 20.4435 20.4447 25.6666 14.0012 25.6666C11.9394 25.6702 9.91384 25.1246 8.13282 24.0858L2.33916 25.6666L3.91649 19.8706C2.87694 18.0891 2.33088 16.0627 2.33449 14C2.33449 7.55648 7.55766 2.33331 14.0012 2.33331ZM10.0252 8.51665L9.79182 8.52598C9.64096 8.53637 9.49356 8.576 9.35782 8.64265C9.23133 8.71441 9.11581 8.80399 9.01482 8.90865C8.87482 9.04048 8.79549 9.15481 8.71032 9.26565C8.2788 9.8267 8.04646 10.5155 8.04999 11.2233C8.05232 11.795 8.20166 12.3515 8.43499 12.8718C8.91216 13.9241 9.69732 15.0383 10.7333 16.0708C10.983 16.3193 11.228 16.569 11.4917 16.8011C12.779 17.9344 14.313 18.7518 15.9717 19.1881L16.6343 19.2896C16.8502 19.3013 17.066 19.285 17.283 19.2745C17.6227 19.2566 17.9544 19.1646 18.2548 19.005C18.4075 18.926 18.5566 18.8404 18.7017 18.7483C18.7017 18.7483 18.751 18.7149 18.8475 18.6433C19.005 18.5266 19.1018 18.4438 19.2325 18.3073C19.3305 18.2062 19.4122 18.0888 19.4775 17.955C19.5685 17.7648 19.6595 17.402 19.6968 17.0998C19.7248 16.8688 19.7167 16.7428 19.7132 16.6646C19.7085 16.5398 19.6047 16.4103 19.4915 16.3555L18.8125 16.051C18.8125 16.051 17.7975 15.6088 17.1768 15.3265C17.1119 15.2982 17.0423 15.282 16.9715 15.2786C16.8917 15.2703 16.811 15.2792 16.7349 15.3048C16.6588 15.3303 16.5891 15.372 16.5305 15.4268C16.5247 15.4245 16.4465 15.491 15.603 16.513C15.5546 16.578 15.4879 16.6272 15.4114 16.6542C15.335 16.6812 15.2522 16.6849 15.1737 16.6646C15.0976 16.6444 15.0231 16.6186 14.9508 16.5876C14.8062 16.527 14.756 16.5036 14.6568 16.4616C13.987 16.1699 13.367 15.775 12.8193 15.2915C12.6723 15.1631 12.5358 15.0231 12.3958 14.8878C11.9369 14.4482 11.5369 13.951 11.2058 13.4085L11.137 13.2976C11.0883 13.2227 11.0484 13.1425 11.018 13.0585C10.9737 12.887 11.0892 12.7493 11.0892 12.7493C11.0892 12.7493 11.3727 12.439 11.5045 12.271C11.6328 12.1076 11.7413 11.949 11.8113 11.8358C11.949 11.6141 11.9922 11.3866 11.9198 11.2105C11.5932 10.4125 11.2556 9.61876 10.9072 8.82931C10.8383 8.67298 10.6342 8.56098 10.4487 8.53881C10.3857 8.53103 10.3227 8.52481 10.2597 8.52015C10.103 8.51116 9.94593 8.51272 9.78949 8.52481L10.0252 8.51665Z" fill="white"/>
</svg>
